<svg id="Vrstva_1" data-name="Vrstva 1" xmlns="http://www.w3.org/2000/svg" width="446.44" height="100" viewBox="0 0 446.44 100"><defs><style>.cls-1,.cls-2{fill:#e9784e;}.cls-1{fill-rule:evenodd;}</style></defs><title>20190227 - 1P maintenance 100 px - svg</title><path class="cls-1" d="M45.67,100l14.22-8.21L24.4,30.4a7.86,7.86,0,0,0-5.14-3.9,8.47,8.47,0,0,0-6.44,1L8.7,29.85q2.07,7.88-1,13.66A20.73,20.73,0,0,1,0,51.91l6,10.3,13.39-7.73Z" transform="translate(0)"/><path class="cls-1" d="M46.45,23.35l9.25,16,11.39-6.57c2.22-1.29,4.63-3.16,5.43-5.71s-.24-5.2-1.49-7.37-2.94-4.25-5.39-4.91-5,.35-7.12,1.56ZM62.52,51.2,74.81,72.47,61.43,80.2,30.36,26.38a7.79,7.79,0,0,1,2.86-10.69L53.46,4C58.69,1,64.9-1.07,70.92.6S81.35,7.12,84.43,12.46s5,11.26,3.59,17.33-5.9,10.1-11,13Z" transform="translate(0)"/><path class="cls-2" d="M111.31,47V68.52h-8.59V48.72c0-9.61,4.83-14.38,14.44-14.38,4.33,0,7.64.95,10.06,2.86,2.42-1.84,5.73-2.73,10.05-2.73,9.61,0,14.39,4.77,14.32,14.38V68.64H147.2c-2.8-.19-4.2-1.52-4.2-4.2V47.13c-.19-3.5-2.1-5.22-5.85-5.22s-5.67,1.72-5.73,5.22V68.52h-8.53V47c-.19-3.5-2.1-5.21-5.85-5.21S111.37,43.5,111.31,47Z" transform="translate(0)"/><path class="cls-2" d="M165.21,43.63h-8.46c1-6.24,5.41-9.29,13.17-9.29,9.29,0,14,3,14.2,9.29V55.09c0,9.29-5.61,13.43-14.71,14.06-8.08.64-13.68-3.12-13.68-10.56.19-8.09,6.05-10.25,14.57-11.08,3.63-.44,5.48-1.52,5.48-3.37-.19-1.91-2-2.86-5.48-2.86C167.31,41.28,165.66,42,165.21,43.63ZM175.9,54.71V51.59a36.44,36.44,0,0,1-6.74,2c-3.37.64-5.09,2.23-5.09,4.71.19,2.68,1.59,4,4.26,4C173,62.28,175.9,59.48,175.9,54.71Z" transform="translate(0)"/><path class="cls-2" d="M192.58,25.24c2.8,0,4.14,1.4,4.07,4.14v2.48h-8.46V25.24Zm0,9.61c2.74,0,4.07,1.34,4.07,4.07v29.6h-8.46V34.85Z" transform="translate(0)"/><path class="cls-2" d="M225.8,68.52c-2.8-.19-4.2-1.53-4.2-4.2V47c-.19-3.5-2.1-5.21-5.85-5.21S210.08,43.5,210,47V68.52h-8.59V48.72c0-9.61,4.83-14.38,14.44-14.38s14.32,4.77,14.26,14.38v19.8Z" transform="translate(0)"/><path class="cls-2" d="M243.3,40.89h-.89V59.54c0,1.4.83,2.17,2.48,2.17h2.61v6.42a45.91,45.91,0,0,1-8.91-.06c-3.18-.32-4.71-2.29-4.64-6V25.24h4.39a4.27,4.27,0,0,1,4.07,4.26v5.35h5.09v1.84A4.11,4.11,0,0,1,243.3,40.89Z" transform="translate(0)"/><path class="cls-2" d="M266.09,69.28C255.9,69,250.81,63,250.81,51.59S256,34.4,266.21,34.34c10.7,0,15.72,6.55,15.09,19.73H259.53c.32,5.15,2.55,7.76,6.68,7.76a7.82,7.82,0,0,0,5.48-2.41,3.68,3.68,0,0,1,2.86-1.21h6.24C278.94,65.33,274.36,69.28,266.09,69.28ZM259.66,48h12.66c-.51-4.45-2.61-6.74-6.23-6.74S260.29,43.57,259.66,48Z" transform="translate(0)"/><path class="cls-2" d="M309.62,68.52c-2.8-.19-4.2-1.53-4.2-4.2V47c-.19-3.5-2.1-5.21-5.86-5.21S293.9,43.5,293.83,47V68.52h-8.59V48.72c0-9.61,4.84-14.38,14.45-14.38S314,39.11,314,48.72v19.8Z" transform="translate(0)"/><path class="cls-2" d="M326.48,43.63H318c1-6.24,5.41-9.29,13.17-9.29,9.29,0,14,3,14.19,9.29V55.09c0,9.29-5.6,13.43-14.7,14.06C322.6,69.79,317,66,317,58.59c.19-8.09,6.05-10.25,14.57-11.08,3.63-.44,5.48-1.52,5.48-3.37-.19-1.91-2-2.86-5.48-2.86C328.58,41.28,326.93,42,326.48,43.63Zm10.69,11.08V51.59a36.44,36.44,0,0,1-6.74,2c-3.38.64-5.09,2.23-5.09,4.71.19,2.68,1.59,4,4.26,4C334.31,62.28,337.17,59.48,337.17,54.71Z" transform="translate(0)"/><path class="cls-2" d="M373.83,68.52c-2.8-.19-4.2-1.53-4.2-4.2V47c-.19-3.5-2.1-5.21-5.85-5.21s-5.67,1.71-5.73,5.21V68.52h-8.59V48.72c0-9.61,4.83-14.38,14.44-14.38s14.32,4.77,14.26,14.38v19.8Z" transform="translate(0)"/><path class="cls-2" d="M397.38,69.28c-10.18,0-15.4-5.86-15.66-17.44,0-11.52,5.16-17.31,15.53-17.5,8.15,0,13,3.63,14.45,10.95h-9.23a5.51,5.51,0,0,0-5.47-3.5c-4.46,0-6.68,3.37-6.68,10.05s2.35,10.06,7.06,10a6.6,6.6,0,0,0,5.09-2.41,3.9,3.9,0,0,1,2.87-1.21h6.36C410.17,65.08,405.21,69.47,397.38,69.28Z" transform="translate(0)"/><path class="cls-2" d="M431.17,69.28C421,69,415.9,63,415.9,51.59s5.15-17.19,15.4-17.25c10.69,0,15.72,6.55,15.08,19.73H424.62c.32,5.15,2.54,7.76,6.68,7.76a7.8,7.8,0,0,0,5.47-2.41,3.71,3.71,0,0,1,2.87-1.21h6.24C444,65.33,439.45,69.28,431.17,69.28ZM424.75,48h12.66c-.51-4.45-2.61-6.74-6.24-6.74S425.38,43.57,424.75,48Z" transform="translate(0)"/></svg>