<svg id="Vrstva_1" data-name="Vrstva 1" xmlns="http://www.w3.org/2000/svg" width="111.61" height="25" viewBox="0 0 111.61 25"><defs><style>.cls-1{fill:#e9784e;}</style></defs><title>20190227 - 1P maintenance - svg</title><path class="cls-1" d="M4.82,6.62a2.16,2.16,0,0,0-1.62.25l-1,.59a4.54,4.54,0,0,1-.26,3.42A5.17,5.17,0,0,1,0,13l1.49,2.57,3.35-1.93L11.42,25,15,23,6.1,7.6A2,2,0,0,0,4.82,6.62Z" transform="translate(0 0)"/><path class="cls-1" d="M17.73.15A5.79,5.79,0,0,0,13.36,1l-5,2.92a1.9,1.9,0,0,0-.92,1.19,1.87,1.87,0,0,0,.2,1.48l7.77,13.46,3.34-1.93L15.63,12.8l3.63-2.09A5.31,5.31,0,0,0,22,7.45a6,6,0,0,0-.89-4.34A5.9,5.9,0,0,0,17.73.15Zm.4,6.62A2.79,2.79,0,0,1,16.77,8.2L13.92,9.85l-2.31-4,3-1.75a2.41,2.41,0,0,1,1.78-.38,2.44,2.44,0,0,1,1.35,1.22A2.38,2.38,0,0,1,18.13,6.77Z" transform="translate(0 0)"/><path class="cls-1" d="M34.32,8.61a4,4,0,0,0-2.51.69,4,4,0,0,0-2.52-.72c-2.4,0-3.61,1.2-3.61,3.6v4.95h2.15V11.75c0-.88.49-1.31,1.43-1.31s1.42.43,1.46,1.31v5.38h2.14V11.78c0-.87.49-1.3,1.43-1.3s1.42.43,1.46,1.3v4.33c0,.67.35,1,1,1.05h1.1V12.21C37.92,9.81,36.72,8.61,34.32,8.61Z" transform="translate(0 0)"/><path class="cls-1" d="M42.48,8.58c-1.94,0-3,.77-3.29,2.33H41.3c.12-.4.53-.59,1.28-.59s1.32.24,1.37.71-.47.74-1.37.85c-2.14.2-3.6.75-3.65,2.77,0,1.86,1.4,2.8,3.42,2.64,2.28-.16,3.68-1.2,3.68-3.52V10.91C46,9.35,44.81,8.58,42.48,8.58Zm1.5,5.1a1.74,1.74,0,0,1-1.9,1.89.94.94,0,0,1-1.06-1c0-.62.43-1,1.27-1.17A10.22,10.22,0,0,0,44,12.9Z" transform="translate(0 0)"/><path class="cls-1" d="M48.15,6.31h-1.1V8h2.11V7.34A.89.89,0,0,0,48.15,6.31Z" transform="translate(0 0)"/><path class="cls-1" d="M48.15,8.71h-1.1v8.42h2.11V9.73A.89.89,0,0,0,48.15,8.71Z" transform="translate(0 0)"/><path class="cls-1" d="M54,8.58c-2.4,0-3.61,1.2-3.61,3.6v4.95h2.15V11.75c0-.88.49-1.31,1.43-1.31a1.26,1.26,0,0,1,1.46,1.31v4.33c0,.67.35,1,1.05,1.05h1.08V12.18C57.55,9.78,56.37,8.58,54,8.58Z" transform="translate(0 0)"/><path class="cls-1" d="M60.6,7.37a1.07,1.07,0,0,0-1-1.06H58.49v9.2c0,.93.36,1.43,1.16,1.51a11.1,11.1,0,0,0,2.23,0v-1.6h-.66c-.41,0-.62-.19-.62-.55V10.22h.23a1,1,0,0,0,1.05-1.05V8.71H60.6Z" transform="translate(0 0)"/><path class="cls-1" d="M66.55,8.58C64,8.6,62.7,10,62.7,12.9s1.28,4.34,3.82,4.42a3.4,3.4,0,0,0,3.68-2.77H68.64a1,1,0,0,0-.72.3,1.94,1.94,0,0,1-1.37.61c-1,0-1.59-.65-1.67-1.94h5.45C70.49,10.22,69.23,8.58,66.55,8.58ZM64.92,12c.15-1.11.7-1.68,1.6-1.68S68,10.89,68.08,12Z" transform="translate(0 0)"/><path class="cls-1" d="M74.92,8.58c-2.4,0-3.61,1.2-3.61,3.6v4.95h2.15V11.75c0-.88.49-1.31,1.43-1.31s1.42.43,1.47,1.31v4.33c0,.67.35,1,1,1.05h1.08V12.18C78.5,9.78,77.33,8.58,74.92,8.58Z" transform="translate(0 0)"/><path class="cls-1" d="M82.8,8.58c-1.94,0-3,.77-3.3,2.33h2.12c.11-.4.53-.59,1.27-.59s1.33.24,1.37.71-.46.74-1.37.85c-2.13.2-3.59.75-3.64,2.77,0,1.86,1.4,2.8,3.42,2.64,2.28-.16,3.68-1.2,3.68-3.52V10.91C86.3,9.35,85.12,8.58,82.8,8.58Zm1.49,5.1a1.74,1.74,0,0,1-1.89,1.89,1,1,0,0,1-1.07-1c0-.62.43-1,1.28-1.17a9.81,9.81,0,0,0,1.68-.51Z" transform="translate(0 0)"/><path class="cls-1" d="M91,8.58q-3.62,0-3.62,3.6v4.95h2.15V11.75c0-.88.5-1.31,1.44-1.31a1.26,1.26,0,0,1,1.46,1.31v4.33c0,.67.35,1,1,1.05h1.08V12.18C94.56,9.78,93.38,8.58,91,8.58Z" transform="translate(0 0)"/><path class="cls-1" d="M99.25,10.44a1.39,1.39,0,0,1,1.37.88h2.31q-.56-2.75-3.62-2.74c-2.59.05-3.88,1.5-3.88,4.38s1.37,4.36,3.92,4.36a3.33,3.33,0,0,0,3.58-2.77h-1.59a1,1,0,0,0-.72.3,1.65,1.65,0,0,1-1.27.61c-1.18,0-1.77-.83-1.77-2.5S98.14,10.44,99.25,10.44Z" transform="translate(0 0)"/><path class="cls-1" d="M109.2,14.85a2,2,0,0,1-1.37.61c-1,0-1.59-.65-1.67-1.94h5.44c.16-3.3-1.1-4.94-3.77-4.94S104,10,104,12.9s1.27,4.34,3.81,4.42a3.4,3.4,0,0,0,3.68-2.77h-1.56A.93.93,0,0,0,109.2,14.85Zm-1.41-4.53c.91,0,1.44.57,1.56,1.68h-3.16C106.35,10.89,106.89,10.32,107.79,10.32Z" transform="translate(0 0)"/></svg>